<?xml version="1.0" encoding="utf-8"?>
<!DOCTYPE svg PUBLIC "-//W3C//DTD SVG 1.1//EN" "http://www.w3.org/Graphics/SVG/1.1/DTD/svg11.dtd">
<!-- Created with matplotlib (http://matplotlib.org/) -->
<svg height="650" onload="init(evt)" version="1.1" width="900" xmlns="http://www.w3.org/2000/svg" xmlns:xlink="http://www.w3.org/1999/xlink" >
 <defs>
  <style type="text/css">
   *{stroke-linecap:butt;stroke-linejoin:round;stroke-miterlimit:100000;}
  </style>
 </defs>
 <style>
  .tooltip{
	   font-size: 12px;
       font-family: "Helvetica";
       fill: white;
       stroke: white;
       stroke-width: 0.85;
        }
        .tooltip_bg{
	   fill: #34495E;
	   stroke: white;
	   stroke-width: 1;
	   opacity: 0.85;
        }
    .section:hover
    {
        opacity: 0.5;
    }
    .title
			{
				font-family: sans-serif;
				font-size: 20px;
				font-weight: bold;
			}
    .subtitle	
			{
				font-family: sans-serif;
				font-size: 14px;
				font-style: italic;
			}
    
 </style>
 <script type="text/ecmascript">
  function init(evt)
	{
	    if ( window.svgDocument == null )
	    {
		svgDocument = evt.target.ownerDocument;
	    }

	    tooltip = svgDocument.getElementById('tooltip');
        tooltip_bg = svgDocument.getElementById('tooltip_bg');
	}

	function ShowTooltip(evt)
	{
	    tooltip.setAttributeNS(null,"x",evt.clientX+8);
	    tooltip.setAttributeNS(null,"y",evt.clientY+26);
	    tooltip.setAttributeNS(null,"visibility","visible");
        tooltip.firstChild.data = evt.target.getAttributeNS(null,"atitle") + " " + evt.target.getAttributeNS(null,"value");
        tooltip_bg.setAttributeNS(null,"x",evt.clientX+0);
        tooltip_bg.setAttributeNS(null,"y",evt.clientY+12);
        tooltip_bg.setAttributeNS(null,"visibility","visible");
        length = tooltip.getComputedTextLength();
        tooltip_bg.setAttributeNS(null,"width",length+18);
	}

	function HideTooltip(evt)
	{
	    tooltip.setAttributeNS(null,"visibility","hidden");
        tooltip_bg.setAttributeNS(null,"visibility","hidden");
	}
 </script>
 <g id="figure_1" transform="translate(0 50)scale(2)" >
  <g id="patch_1">
   <path d="M 0 288  L 432 288  L 432 0  L 0 0  z " style="fill:#ffffff;" visibility="hidden"/>
  </g>
  <g id="axes_1">
   <g id="patch_2">
    <path atitle="Equity participation" class="section" d="M 215.808303 10.8  C 213.326385 10.8 210.844957 10.869688 208.366951 11.008981  C 205.888946 11.148275 203.41534 11.357118 200.949058 11.635266  L 215.808303 143.389433  L 215.808303 10.8  z " onmousemove="ShowTooltip(evt)" onmouseout="HideTooltip(evt)" style="fill:#d53e4f;" value="134.6"/>
   </g>
   <g id="patch_3">
    <path atitle="Grant" class="section" d="M 200.949058 11.635266  C 179.187252 14.089564 158.368749 21.897642 140.36028 34.359375  C 122.35181 46.821108 107.708212 63.55255 97.742531 83.053447  C 87.77685 102.554343 82.796127 124.223874 83.246969 146.118998  C 83.697811 168.014123 89.566327 189.460258 100.326305 208.534393  C 111.086283 227.608528 126.40621 243.722993 144.912396 255.432853  C 163.418582 267.142714 184.540854 274.087191 206.385244 275.643596  C 228.229634 277.2 250.123119 273.320379 270.102578 264.352606  C 290.082038 255.384833 307.531908 241.605204 320.887513 224.249295  L 215.808303 143.389433  L 200.949058 11.635266  z " onmousemove="ShowTooltip(evt)" onmouseout="HideTooltip(evt)" style="fill:#fc8d59;" value="4727.2"/>
   </g>
   <g id="patch_4">
    <path atitle="Grant" class="section" d="M 320.887513 224.249295  C 322.350504 222.348104 323.761629 220.40756 325.119329 218.429803  C 326.477028 216.452047 327.780803 214.437808 329.029213 212.389311  L 215.808303 143.389433  L 320.887513 224.249295  z " onmousemove="ShowTooltip(evt)" onmouseout="HideTooltip(evt)" style="fill:#fee08b;" value="130.1"/>
   </g>
   <g id="patch_5">
    <path atitle="Soft loan" class="section" d="M 329.029213 212.389311  C 329.980129 210.828966 330.898688 209.249131 331.784301 207.650817  C 332.669914 206.052503 333.522391 204.436053 334.341188 202.802502  L 215.808303 143.389433  L 329.029213 212.389311  z " onmousemove="ShowTooltip(evt)" onmouseout="HideTooltip(evt)" style="fill:#ffffbf;" value="99.1"/>
   </g>
   <g id="patch_6">
    <path atitle="Tax deferral" class="section" d="M 334.341188 202.802502  C 334.361843 202.761293 334.382476 202.720074 334.403089 202.678845  C 334.423701 202.637615 334.444291 202.596374 334.46486 202.555123  L 215.808303 143.389433  L 334.341188 202.802502  z " onmousemove="ShowTooltip(evt)" onmouseout="HideTooltip(evt)" style="fill:#e6f598;" value="2.5"/>
   </g>
   <g id="patch_7">
    <path atitle="Tax exemption" class="section" d="M 334.46486 202.555123  C 344.448602 182.532768 349.203873 160.305381 348.286145 137.950794  C 347.368418 115.596207 340.80721 93.833397 329.215866 74.696768  C 317.624523 55.56014 301.375851 39.665173 281.988787 28.49774  C 262.601723 17.330307 240.699803 11.24958 218.330434 10.82399  L 215.808303 143.389433  L 334.46486 202.555123  z " onmousemove="ShowTooltip(evt)" onmouseout="HideTooltip(evt)" style="fill:#99d594;" value="2414.2"/>
   </g>
   <g id="patch_8">
    <path atitle="Other" class="section" d="M 218.330434 10.82399  C 217.910123 10.815994 217.489776 10.809996 217.069408 10.805998  C 216.64904 10.801999 216.228656 10.8 215.808269 10.8  L 215.808303 143.389433  L 218.330434 10.82399  z " onmousemove="ShowTooltip(evt)" onmouseout="HideTooltip(evt)" style="fill:#3288bd;" value="22.8"/>
   </g>
   <g id="matplotlib.axis_1"/>
   <g id="matplotlib.axis_2"/>
   <g id="legend_1" transform="translate(0,180) scale(0.5)">
    <g id="patch_9">
     <path d="M 16.8 143.69625  L 177.5925 143.69625  L 177.5925 16.8  L 16.8 16.8  z " style="fill:#ffffff;stroke:#000000;stroke-linejoin:miter;"/>
    </g>
    <g id="patch_10">
     <path d="M 21.6 30.718125  L 45.6 30.718125  L 45.6 22.318125  L 21.6 22.318125  z " style="fill:#d53e4f;"/>
    </g>
    <g id="text_1">
     <!-- Equity participation -->
     <defs>
      <path d="M 34.28125 27.484375  Q 23.390625 27.484375 19.1875 25  Q 14.984375 22.515625 14.984375 16.5  Q 14.984375 11.71875 18.140625 8.90625  Q 21.296875 6.109375 26.703125 6.109375  Q 34.1875 6.109375 38.703125 11.40625  Q 43.21875 16.703125 43.21875 25.484375  L 43.21875 27.484375  z M 52.203125 31.203125  L 52.203125 0  L 43.21875 0  L 43.21875 8.296875  Q 40.140625 3.328125 35.546875 0.953125  Q 30.953125 -1.421875 24.3125 -1.421875  Q 15.921875 -1.421875 10.953125 3.296875  Q 6 8.015625 6 15.921875  Q 6 25.140625 12.171875 29.828125  Q 18.359375 34.515625 30.609375 34.515625  L 43.21875 34.515625  L 43.21875 35.40625  Q 43.21875 41.609375 39.140625 45  Q 35.0625 48.390625 27.6875 48.390625  Q 23 48.390625 18.546875 47.265625  Q 14.109375 46.140625 10.015625 43.890625  L 10.015625 52.203125  Q 14.9375 54.109375 19.578125 55.046875  Q 24.21875 56 28.609375 56  Q 40.484375 56 46.34375 49.84375  Q 52.203125 43.703125 52.203125 31.203125  " id="BitstreamVeraSans-Roman-61"/>
      <path d="M 30.609375 48.390625  Q 23.390625 48.390625 19.1875 42.75  Q 14.984375 37.109375 14.984375 27.296875  Q 14.984375 17.484375 19.15625 11.84375  Q 23.34375 6.203125 30.609375 6.203125  Q 37.796875 6.203125 41.984375 11.859375  Q 46.1875 17.53125 46.1875 27.296875  Q 46.1875 37.015625 41.984375 42.703125  Q 37.796875 48.390625 30.609375 48.390625  M 30.609375 56  Q 42.328125 56 49.015625 48.375  Q 55.71875 40.765625 55.71875 27.296875  Q 55.71875 13.875 49.015625 6.21875  Q 42.328125 -1.421875 30.609375 -1.421875  Q 18.84375 -1.421875 12.171875 6.21875  Q 5.515625 13.875 5.515625 27.296875  Q 5.515625 40.765625 12.171875 48.375  Q 18.84375 56 30.609375 56  " id="BitstreamVeraSans-Roman-6f"/>
      <path d="M 18.3125 70.21875  L 18.3125 54.6875  L 36.8125 54.6875  L 36.8125 47.703125  L 18.3125 47.703125  L 18.3125 18.015625  Q 18.3125 11.328125 20.140625 9.421875  Q 21.96875 7.515625 27.59375 7.515625  L 36.8125 7.515625  L 36.8125 0  L 27.59375 0  Q 17.1875 0 13.234375 3.875  Q 9.28125 7.765625 9.28125 18.015625  L 9.28125 47.703125  L 2.6875 47.703125  L 2.6875 54.6875  L 9.28125 54.6875  L 9.28125 70.21875  z " id="BitstreamVeraSans-Roman-74"/>
      <path d="M 9.8125 72.90625  L 55.90625 72.90625  L 55.90625 64.59375  L 19.671875 64.59375  L 19.671875 43.015625  L 54.390625 43.015625  L 54.390625 34.71875  L 19.671875 34.71875  L 19.671875 8.296875  L 56.78125 8.296875  L 56.78125 0  L 9.8125 0  z " id="BitstreamVeraSans-Roman-45"/>
      <path d="M 41.109375 46.296875  Q 39.59375 47.171875 37.8125 47.578125  Q 36.03125 48 33.890625 48  Q 26.265625 48 22.1875 43.046875  Q 18.109375 38.09375 18.109375 28.8125  L 18.109375 0  L 9.078125 0  L 9.078125 54.6875  L 18.109375 54.6875  L 18.109375 46.1875  Q 20.953125 51.171875 25.484375 53.578125  Q 30.03125 56 36.53125 56  Q 37.453125 56 38.578125 55.875  Q 39.703125 55.765625 41.0625 55.515625  z " id="BitstreamVeraSans-Roman-72"/>
      <path id="BitstreamVeraSans-Roman-20"/>
      <path d="M 8.5 21.578125  L 8.5 54.6875  L 17.484375 54.6875  L 17.484375 21.921875  Q 17.484375 14.15625 20.5 10.265625  Q 23.53125 6.390625 29.59375 6.390625  Q 36.859375 6.390625 41.078125 11.03125  Q 45.3125 15.671875 45.3125 23.6875  L 45.3125 54.6875  L 54.296875 54.6875  L 54.296875 0  L 45.3125 0  L 45.3125 8.40625  Q 42.046875 3.421875 37.71875 1  Q 33.40625 -1.421875 27.6875 -1.421875  Q 18.265625 -1.421875 13.375 4.4375  Q 8.5 10.296875 8.5 21.578125  " id="BitstreamVeraSans-Roman-75"/>
      <path d="M 18.109375 8.203125  L 18.109375 -20.796875  L 9.078125 -20.796875  L 9.078125 54.6875  L 18.109375 54.6875  L 18.109375 46.390625  Q 20.953125 51.265625 25.265625 53.625  Q 29.59375 56 35.59375 56  Q 45.5625 56 51.78125 48.09375  Q 58.015625 40.1875 58.015625 27.296875  Q 58.015625 14.40625 51.78125 6.484375  Q 45.5625 -1.421875 35.59375 -1.421875  Q 29.59375 -1.421875 25.265625 0.953125  Q 20.953125 3.328125 18.109375 8.203125  M 48.6875 27.296875  Q 48.6875 37.203125 44.609375 42.84375  Q 40.53125 48.484375 33.40625 48.484375  Q 26.265625 48.484375 22.1875 42.84375  Q 18.109375 37.203125 18.109375 27.296875  Q 18.109375 17.390625 22.1875 11.75  Q 26.265625 6.109375 33.40625 6.109375  Q 40.53125 6.109375 44.609375 11.75  Q 48.6875 17.390625 48.6875 27.296875  " id="BitstreamVeraSans-Roman-70"/>
      <path d="M 14.796875 27.296875  Q 14.796875 17.390625 18.875 11.75  Q 22.953125 6.109375 30.078125 6.109375  Q 37.203125 6.109375 41.296875 11.75  Q 45.40625 17.390625 45.40625 27.296875  Q 45.40625 37.203125 41.296875 42.84375  Q 37.203125 48.484375 30.078125 48.484375  Q 22.953125 48.484375 18.875 42.84375  Q 14.796875 37.203125 14.796875 27.296875  M 45.40625 8.203125  Q 42.578125 3.328125 38.25 0.953125  Q 33.9375 -1.421875 27.875 -1.421875  Q 17.96875 -1.421875 11.734375 6.484375  Q 5.515625 14.40625 5.515625 27.296875  Q 5.515625 40.1875 11.734375 48.09375  Q 17.96875 56 27.875 56  Q 33.9375 56 38.25 53.625  Q 42.578125 51.265625 45.40625 46.390625  L 45.40625 54.6875  L 54.390625 54.6875  L 54.390625 -20.796875  L 45.40625 -20.796875  z " id="BitstreamVeraSans-Roman-71"/>
      <path d="M 32.171875 -5.078125  Q 28.375 -14.84375 24.75 -17.8125  Q 21.140625 -20.796875 15.09375 -20.796875  L 7.90625 -20.796875  L 7.90625 -13.28125  L 13.1875 -13.28125  Q 16.890625 -13.28125 18.9375 -11.515625  Q 21 -9.765625 23.484375 -3.21875  L 25.09375 0.875  L 2.984375 54.6875  L 12.5 54.6875  L 29.59375 11.921875  L 46.6875 54.6875  L 56.203125 54.6875  z " id="BitstreamVeraSans-Roman-79"/>
      <path d="M 9.421875 54.6875  L 18.40625 54.6875  L 18.40625 0  L 9.421875 0  z M 9.421875 75.984375  L 18.40625 75.984375  L 18.40625 64.59375  L 9.421875 64.59375  z " id="BitstreamVeraSans-Roman-69"/>
      <path d="M 54.890625 33.015625  L 54.890625 0  L 45.90625 0  L 45.90625 32.71875  Q 45.90625 40.484375 42.875 44.328125  Q 39.84375 48.1875 33.796875 48.1875  Q 26.515625 48.1875 22.3125 43.546875  Q 18.109375 38.921875 18.109375 30.90625  L 18.109375 0  L 9.078125 0  L 9.078125 54.6875  L 18.109375 54.6875  L 18.109375 46.1875  Q 21.34375 51.125 25.703125 53.5625  Q 30.078125 56 35.796875 56  Q 45.21875 56 50.046875 50.171875  Q 54.890625 44.34375 54.890625 33.015625  " id="BitstreamVeraSans-Roman-6e"/>
      <path d="M 48.78125 52.59375  L 48.78125 44.1875  Q 44.96875 46.296875 41.140625 47.34375  Q 37.3125 48.390625 33.40625 48.390625  Q 24.65625 48.390625 19.8125 42.84375  Q 14.984375 37.3125 14.984375 27.296875  Q 14.984375 17.28125 19.8125 11.734375  Q 24.65625 6.203125 33.40625 6.203125  Q 37.3125 6.203125 41.140625 7.25  Q 44.96875 8.296875 48.78125 10.40625  L 48.78125 2.09375  Q 45.015625 0.34375 40.984375 -0.53125  Q 36.96875 -1.421875 32.421875 -1.421875  Q 20.0625 -1.421875 12.78125 6.34375  Q 5.515625 14.109375 5.515625 27.296875  Q 5.515625 40.671875 12.859375 48.328125  Q 20.21875 56 33.015625 56  Q 37.15625 56 41.109375 55.140625  Q 45.0625 54.296875 48.78125 52.59375  " id="BitstreamVeraSans-Roman-63"/>
     </defs>
     <g transform="translate(55.2 30.718125)scale(0.12 -0.12)">
      <use xlink:href="#BitstreamVeraSans-Roman-45"/>
      <use x="63.18359375" xlink:href="#BitstreamVeraSans-Roman-71"/>
      <use x="126.66015625" xlink:href="#BitstreamVeraSans-Roman-75"/>
      <use x="190.0390625" xlink:href="#BitstreamVeraSans-Roman-69"/>
      <use x="217.822265625" xlink:href="#BitstreamVeraSans-Roman-74"/>
      <use x="257.03125" xlink:href="#BitstreamVeraSans-Roman-79"/>
      <use x="316.2109375" xlink:href="#BitstreamVeraSans-Roman-20"/>
      <use x="347.998046875" xlink:href="#BitstreamVeraSans-Roman-70"/>
      <use x="411.474609375" xlink:href="#BitstreamVeraSans-Roman-61"/>
      <use x="472.75390625" xlink:href="#BitstreamVeraSans-Roman-72"/>
      <use x="513.8671875" xlink:href="#BitstreamVeraSans-Roman-74"/>
      <use x="553.076171875" xlink:href="#BitstreamVeraSans-Roman-69"/>
      <use x="580.859375" xlink:href="#BitstreamVeraSans-Roman-63"/>
      <use x="635.83984375" xlink:href="#BitstreamVeraSans-Roman-69"/>
      <use x="663.623046875" xlink:href="#BitstreamVeraSans-Roman-70"/>
      <use x="727.099609375" xlink:href="#BitstreamVeraSans-Roman-61"/>
      <use x="788.37890625" xlink:href="#BitstreamVeraSans-Roman-74"/>
      <use x="827.587890625" xlink:href="#BitstreamVeraSans-Roman-69"/>
      <use x="855.37109375" xlink:href="#BitstreamVeraSans-Roman-6f"/>
      <use x="916.552734375" xlink:href="#BitstreamVeraSans-Roman-6e"/>
     </g>
    </g>
    <g id="patch_11">
     <path d="M 21.6 48.331875  L 45.6 48.331875  L 45.6 39.931875  L 21.6 39.931875  z " style="fill:#fc8d59;"/>
    </g>
    <g id="text_2">
     <!-- Grant -->
     <defs>
      <path d="M 59.515625 10.40625  L 59.515625 29.984375  L 43.40625 29.984375  L 43.40625 38.09375  L 69.28125 38.09375  L 69.28125 6.78125  Q 63.578125 2.734375 56.6875 0.65625  Q 49.8125 -1.421875 42 -1.421875  Q 24.90625 -1.421875 15.25 8.5625  Q 5.609375 18.5625 5.609375 36.375  Q 5.609375 54.25 15.25 64.234375  Q 24.90625 74.21875 42 74.21875  Q 49.125 74.21875 55.546875 72.453125  Q 61.96875 70.703125 67.390625 67.28125  L 67.390625 56.78125  Q 61.921875 61.421875 55.765625 63.765625  Q 49.609375 66.109375 42.828125 66.109375  Q 29.4375 66.109375 22.71875 58.640625  Q 16.015625 51.171875 16.015625 36.375  Q 16.015625 21.625 22.71875 14.15625  Q 29.4375 6.6875 42.828125 6.6875  Q 48.046875 6.6875 52.140625 7.59375  Q 56.25 8.5 59.515625 10.40625  " id="BitstreamVeraSans-Roman-47"/>
     </defs>
     <g transform="translate(55.2 48.331875)scale(0.12 -0.12)">
      <use xlink:href="#BitstreamVeraSans-Roman-47"/>
      <use x="77.490234375" xlink:href="#BitstreamVeraSans-Roman-72"/>
      <use x="118.603515625" xlink:href="#BitstreamVeraSans-Roman-61"/>
      <use x="179.8828125" xlink:href="#BitstreamVeraSans-Roman-6e"/>
      <use x="243.26171875" xlink:href="#BitstreamVeraSans-Roman-74"/>
     </g>
    </g>
    <g id="patch_12">
     <path d="M 21.6 65.945625  L 45.6 65.945625  L 45.6 57.545625  L 21.6 57.545625  z " style="fill:#fee08b;"/>
    </g>
    <g id="text_3">
     <!-- Grant -->
     <g transform="translate(55.2 65.945625)scale(0.12 -0.12)">
      <use xlink:href="#BitstreamVeraSans-Roman-47"/>
      <use x="77.490234375" xlink:href="#BitstreamVeraSans-Roman-72"/>
      <use x="118.603515625" xlink:href="#BitstreamVeraSans-Roman-61"/>
      <use x="179.8828125" xlink:href="#BitstreamVeraSans-Roman-6e"/>
      <use x="243.26171875" xlink:href="#BitstreamVeraSans-Roman-74"/>
     </g>
    </g>
    <g id="patch_13">
     <path d="M 21.6 83.559375  L 45.6 83.559375  L 45.6 75.159375  L 21.6 75.159375  z " style="fill:#ffffbf;"/>
    </g>
    <g id="text_4">
     <!-- Soft loan -->
     <defs>
      <path d="M 37.109375 75.984375  L 37.109375 68.5  L 28.515625 68.5  Q 23.6875 68.5 21.796875 66.546875  Q 19.921875 64.59375 19.921875 59.515625  L 19.921875 54.6875  L 34.71875 54.6875  L 34.71875 47.703125  L 19.921875 47.703125  L 19.921875 0  L 10.890625 0  L 10.890625 47.703125  L 2.296875 47.703125  L 2.296875 54.6875  L 10.890625 54.6875  L 10.890625 58.5  Q 10.890625 67.625 15.140625 71.796875  Q 19.390625 75.984375 28.609375 75.984375  z " id="BitstreamVeraSans-Roman-66"/>
      <path d="M 53.515625 70.515625  L 53.515625 60.890625  Q 47.90625 63.578125 42.921875 64.890625  Q 37.9375 66.21875 33.296875 66.21875  Q 25.25 66.21875 20.875 63.09375  Q 16.5 59.96875 16.5 54.203125  Q 16.5 49.359375 19.40625 46.890625  Q 22.3125 44.4375 30.421875 42.921875  L 36.375 41.703125  Q 47.40625 39.59375 52.65625 34.296875  Q 57.90625 29 57.90625 20.125  Q 57.90625 9.515625 50.796875 4.046875  Q 43.703125 -1.421875 29.984375 -1.421875  Q 24.8125 -1.421875 18.96875 -0.25  Q 13.140625 0.921875 6.890625 3.21875  L 6.890625 13.375  Q 12.890625 10.015625 18.65625 8.296875  Q 24.421875 6.59375 29.984375 6.59375  Q 38.421875 6.59375 43.015625 9.90625  Q 47.609375 13.234375 47.609375 19.390625  Q 47.609375 24.75 44.3125 27.78125  Q 41.015625 30.8125 33.5 32.328125  L 27.484375 33.5  Q 16.453125 35.6875 11.515625 40.375  Q 6.59375 45.0625 6.59375 53.421875  Q 6.59375 63.09375 13.40625 68.65625  Q 20.21875 74.21875 32.171875 74.21875  Q 37.3125 74.21875 42.625 73.28125  Q 47.953125 72.359375 53.515625 70.515625  " id="BitstreamVeraSans-Roman-53"/>
      <path d="M 9.421875 75.984375  L 18.40625 75.984375  L 18.40625 0  L 9.421875 0  z " id="BitstreamVeraSans-Roman-6c"/>
     </defs>
     <g transform="translate(55.2 83.559375)scale(0.12 -0.12)">
      <use xlink:href="#BitstreamVeraSans-Roman-53"/>
      <use x="63.4765625" xlink:href="#BitstreamVeraSans-Roman-6f"/>
      <use x="124.658203125" xlink:href="#BitstreamVeraSans-Roman-66"/>
      <use x="159.84765625" xlink:href="#BitstreamVeraSans-Roman-74"/>
      <use x="199.056640625" xlink:href="#BitstreamVeraSans-Roman-20"/>
      <use x="230.84375" xlink:href="#BitstreamVeraSans-Roman-6c"/>
      <use x="258.626953125" xlink:href="#BitstreamVeraSans-Roman-6f"/>
      <use x="319.80859375" xlink:href="#BitstreamVeraSans-Roman-61"/>
      <use x="381.087890625" xlink:href="#BitstreamVeraSans-Roman-6e"/>
     </g>
    </g>
    <g id="patch_14">
     <path d="M 21.6 101.173125  L 45.6 101.173125  L 45.6 92.773125  L 21.6 92.773125  z " style="fill:#e6f598;"/>
    </g>
    <g id="text_5">
     <!-- Tax deferral -->
     <defs>
      <path d="M 56.203125 29.59375  L 56.203125 25.203125  L 14.890625 25.203125  Q 15.484375 15.921875 20.484375 11.0625  Q 25.484375 6.203125 34.421875 6.203125  Q 39.59375 6.203125 44.453125 7.46875  Q 49.3125 8.734375 54.109375 11.28125  L 54.109375 2.78125  Q 49.265625 0.734375 44.1875 -0.34375  Q 39.109375 -1.421875 33.890625 -1.421875  Q 20.796875 -1.421875 13.15625 6.1875  Q 5.515625 13.8125 5.515625 26.8125  Q 5.515625 40.234375 12.765625 48.109375  Q 20.015625 56 32.328125 56  Q 43.359375 56 49.78125 48.890625  Q 56.203125 41.796875 56.203125 29.59375  M 47.21875 32.234375  Q 47.125 39.59375 43.09375 43.984375  Q 39.0625 48.390625 32.421875 48.390625  Q 24.90625 48.390625 20.390625 44.140625  Q 15.875 39.890625 15.1875 32.171875  z " id="BitstreamVeraSans-Roman-65"/>
      <path d="M -0.296875 72.90625  L 61.375 72.90625  L 61.375 64.59375  L 35.5 64.59375  L 35.5 0  L 25.59375 0  L 25.59375 64.59375  L -0.296875 64.59375  z " id="BitstreamVeraSans-Roman-54"/>
      <path d="M 54.890625 54.6875  L 35.109375 28.078125  L 55.90625 0  L 45.3125 0  L 29.390625 21.484375  L 13.484375 0  L 2.875 0  L 24.125 28.609375  L 4.6875 54.6875  L 15.28125 54.6875  L 29.78125 35.203125  L 44.28125 54.6875  z " id="BitstreamVeraSans-Roman-78"/>
      <path d="M 45.40625 46.390625  L 45.40625 75.984375  L 54.390625 75.984375  L 54.390625 0  L 45.40625 0  L 45.40625 8.203125  Q 42.578125 3.328125 38.25 0.953125  Q 33.9375 -1.421875 27.875 -1.421875  Q 17.96875 -1.421875 11.734375 6.484375  Q 5.515625 14.40625 5.515625 27.296875  Q 5.515625 40.1875 11.734375 48.09375  Q 17.96875 56 27.875 56  Q 33.9375 56 38.25 53.625  Q 42.578125 51.265625 45.40625 46.390625  M 14.796875 27.296875  Q 14.796875 17.390625 18.875 11.75  Q 22.953125 6.109375 30.078125 6.109375  Q 37.203125 6.109375 41.296875 11.75  Q 45.40625 17.390625 45.40625 27.296875  Q 45.40625 37.203125 41.296875 42.84375  Q 37.203125 48.484375 30.078125 48.484375  Q 22.953125 48.484375 18.875 42.84375  Q 14.796875 37.203125 14.796875 27.296875  " id="BitstreamVeraSans-Roman-64"/>
     </defs>
     <g transform="translate(55.2 101.173125)scale(0.12 -0.12)">
      <use xlink:href="#BitstreamVeraSans-Roman-54"/>
      <use x="60.833984375" xlink:href="#BitstreamVeraSans-Roman-61"/>
      <use x="122.11328125" xlink:href="#BitstreamVeraSans-Roman-78"/>
      <use x="181.29296875" xlink:href="#BitstreamVeraSans-Roman-20"/>
      <use x="213.080078125" xlink:href="#BitstreamVeraSans-Roman-64"/>
      <use x="276.556640625" xlink:href="#BitstreamVeraSans-Roman-65"/>
      <use x="338.080078125" xlink:href="#BitstreamVeraSans-Roman-66"/>
      <use x="373.28515625" xlink:href="#BitstreamVeraSans-Roman-65"/>
      <use x="434.80859375" xlink:href="#BitstreamVeraSans-Roman-72"/>
      <use x="475.90625" xlink:href="#BitstreamVeraSans-Roman-72"/>
      <use x="517.01953125" xlink:href="#BitstreamVeraSans-Roman-61"/>
      <use x="578.298828125" xlink:href="#BitstreamVeraSans-Roman-6c"/>
     </g>
    </g>
    <g id="patch_15">
     <path d="M 21.6 118.786875  L 45.6 118.786875  L 45.6 110.386875  L 21.6 110.386875  z " style="fill:#99d594;"/>
    </g>
    <g id="text_6">
     <!-- Tax exemption -->
     <defs>
      <path d="M 52 44.1875  Q 55.375 50.25 60.0625 53.125  Q 64.75 56 71.09375 56  Q 79.640625 56 84.28125 50.015625  Q 88.921875 44.046875 88.921875 33.015625  L 88.921875 0  L 79.890625 0  L 79.890625 32.71875  Q 79.890625 40.578125 77.09375 44.375  Q 74.3125 48.1875 68.609375 48.1875  Q 61.625 48.1875 57.5625 43.546875  Q 53.515625 38.921875 53.515625 30.90625  L 53.515625 0  L 44.484375 0  L 44.484375 32.71875  Q 44.484375 40.625 41.703125 44.40625  Q 38.921875 48.1875 33.109375 48.1875  Q 26.21875 48.1875 22.15625 43.53125  Q 18.109375 38.875 18.109375 30.90625  L 18.109375 0  L 9.078125 0  L 9.078125 54.6875  L 18.109375 54.6875  L 18.109375 46.1875  Q 21.1875 51.21875 25.484375 53.609375  Q 29.78125 56 35.6875 56  Q 41.65625 56 45.828125 52.96875  Q 50 49.953125 52 44.1875  " id="BitstreamVeraSans-Roman-6d"/>
     </defs>
     <g transform="translate(55.2 118.786875)scale(0.12 -0.12)">
      <use xlink:href="#BitstreamVeraSans-Roman-54"/>
      <use x="60.833984375" xlink:href="#BitstreamVeraSans-Roman-61"/>
      <use x="122.11328125" xlink:href="#BitstreamVeraSans-Roman-78"/>
      <use x="181.29296875" xlink:href="#BitstreamVeraSans-Roman-20"/>
      <use x="213.080078125" xlink:href="#BitstreamVeraSans-Roman-65"/>
      <use x="274.587890625" xlink:href="#BitstreamVeraSans-Roman-78"/>
      <use x="333.720703125" xlink:href="#BitstreamVeraSans-Roman-65"/>
      <use x="395.244140625" xlink:href="#BitstreamVeraSans-Roman-6d"/>
      <use x="492.65625" xlink:href="#BitstreamVeraSans-Roman-70"/>
      <use x="556.1328125" xlink:href="#BitstreamVeraSans-Roman-74"/>
      <use x="595.341796875" xlink:href="#BitstreamVeraSans-Roman-69"/>
      <use x="623.125" xlink:href="#BitstreamVeraSans-Roman-6f"/>
      <use x="684.306640625" xlink:href="#BitstreamVeraSans-Roman-6e"/>
     </g>
    </g>
    <g id="patch_16">
     <path d="M 21.6 136.400625  L 45.6 136.400625  L 45.6 128.000625  L 21.6 128.000625  z " style="fill:#3288bd;"/>
    </g>
    <g id="text_7">
     <!-- Other -->
     <defs>
      <path d="M 54.890625 33.015625  L 54.890625 0  L 45.90625 0  L 45.90625 32.71875  Q 45.90625 40.484375 42.875 44.328125  Q 39.84375 48.1875 33.796875 48.1875  Q 26.515625 48.1875 22.3125 43.546875  Q 18.109375 38.921875 18.109375 30.90625  L 18.109375 0  L 9.078125 0  L 9.078125 75.984375  L 18.109375 75.984375  L 18.109375 46.1875  Q 21.34375 51.125 25.703125 53.5625  Q 30.078125 56 35.796875 56  Q 45.21875 56 50.046875 50.171875  Q 54.890625 44.34375 54.890625 33.015625  " id="BitstreamVeraSans-Roman-68"/>
      <path d="M 39.40625 66.21875  Q 28.65625 66.21875 22.328125 58.203125  Q 16.015625 50.203125 16.015625 36.375  Q 16.015625 22.609375 22.328125 14.59375  Q 28.65625 6.59375 39.40625 6.59375  Q 50.140625 6.59375 56.421875 14.59375  Q 62.703125 22.609375 62.703125 36.375  Q 62.703125 50.203125 56.421875 58.203125  Q 50.140625 66.21875 39.40625 66.21875  M 39.40625 74.21875  Q 54.734375 74.21875 63.90625 63.9375  Q 73.09375 53.65625 73.09375 36.375  Q 73.09375 19.140625 63.90625 8.859375  Q 54.734375 -1.421875 39.40625 -1.421875  Q 24.03125 -1.421875 14.8125 8.828125  Q 5.609375 19.09375 5.609375 36.375  Q 5.609375 53.65625 14.8125 63.9375  Q 24.03125 74.21875 39.40625 74.21875  " id="BitstreamVeraSans-Roman-4f"/>
     </defs>
     <g transform="translate(55.2 136.400625)scale(0.12 -0.12)">
      <use xlink:href="#BitstreamVeraSans-Roman-4f"/>
      <use x="78.7109375" xlink:href="#BitstreamVeraSans-Roman-74"/>
      <use x="117.919921875" xlink:href="#BitstreamVeraSans-Roman-68"/>
      <use x="181.298828125" xlink:href="#BitstreamVeraSans-Roman-65"/>
      <use x="242.822265625" xlink:href="#BitstreamVeraSans-Roman-72"/>
     </g>
    </g>
   </g>
  </g>
 </g>
 <g id="title"  >
  <text class="title" x="30" y="45" >
   2014 aid by instrument (UK)
  </text>
  <text class="title" x="30" y="75" >
      €m 
  </text>
 </g>
<rect class="tooltip_bg" id="tooltip_bg"
 x="0" y="0" rx="2" ry="2"
 width="100" height="20" visibility="hidden"/>
    s
<text class="tooltip" id="tooltip"
        x="0" y="0" visibility="hidden">Tooltip</text>

</svg>
