<?xml version="1.0" encoding="utf-8"?>
<!DOCTYPE svg PUBLIC "-//W3C//DTD SVG 1.1//EN" "http://www.w3.org/Graphics/SVG/1.1/DTD/svg11.dtd">
<!-- Created with matplotlib (http://matplotlib.org/) -->
<svg height="650" onload="init(evt)" version="1.1" width="900" xmlns="http://www.w3.org/2000/svg" xmlns:xlink="http://www.w3.org/1999/xlink">
 <defs>
  <style type="text/css">
   *{stroke-linecap:butt;stroke-linejoin:round;stroke-miterlimit:100000;}
  </style>
 </defs>
 <style>
  .tooltip{
	   font-size: 12px;
       font-family: "Helvetica";
       fill: white;
       stroke: white;
       stroke-width: 0.85;
        }
        .tooltip_bg{
	   fill: #34495E;
	   stroke: white;
	   stroke-width: 1;
	   opacity: 0.85;
        }
    .section:hover
    {
        opacity: 0.5;
    }
     .title
			{
				font-family: sans-serif;
				font-size: 20px;
				font-weight: bold;
			}
    .subtitle	
			{
				font-family: sans-serif;
				font-size: 14px;
				font-style: italic;
			}
 </style>
 <script type="text/ecmascript">
  function init(evt)
	{
	    if ( window.svgDocument == null )
	    {
		svgDocument = evt.target.ownerDocument;
	    }

	    tooltip = svgDocument.getElementById('tooltip');
        tooltip_bg = svgDocument.getElementById('tooltip_bg');
	}

	function ShowTooltip(evt)
	{
	    tooltip.setAttributeNS(null,"x",evt.clientX+8);
	    tooltip.setAttributeNS(null,"y",evt.clientY+26);
	    tooltip.setAttributeNS(null,"visibility","visible");
        tooltip.firstChild.data = evt.target.getAttributeNS(null,"atitle") + " " + evt.target.getAttributeNS(null,"value");
        tooltip_bg.setAttributeNS(null,"x",evt.clientX+0);
        tooltip_bg.setAttributeNS(null,"y",evt.clientY+12);
        tooltip_bg.setAttributeNS(null,"visibility","visible");
        length = tooltip.getComputedTextLength();
        tooltip_bg.setAttributeNS(null,"width",length+18);
	}

	function HideTooltip(evt)
	{
	    tooltip.setAttributeNS(null,"visibility","hidden");
        tooltip_bg.setAttributeNS(null,"visibility","hidden");
	}
 </script>
 <g id="figure_1" transform="translate(50,50) scale(2)">
  <g id="patch_1">
   <path d="M 0 288  L 432 288  L 432 0  L 0 0  z " style="fill:#ffffff;"/>
  </g>
  <g id="axes_1">
   <g id="patch_2">
    <path atitle="Culture" class="section" d="M 214.477789 10.8  C 206.075952 10.8 197.69304 11.597295 189.441843 13.181158  C 181.190647 14.76502 173.108337 17.128315 165.30366 20.239245  L 214.477789 143.606932  L 214.477789 10.8  z " onmousemove="ShowTooltip(evt)" onmouseout="HideTooltip(evt)" style="fill:#a6cee3;" value="454.6"/>
   </g>
   <g id="patch_3">
    <path atitle="Employment" class="section" d="M 165.30366 20.239245  C 164.113056 20.713817 162.929384 21.205601 161.753016 21.71444  C 160.576649 22.22328 159.407709 22.749122 158.246564 23.291802  L 214.477789 143.606932  L 165.30366 20.239245  z " onmousemove="ShowTooltip(evt)" onmouseout="HideTooltip(evt)" style="fill:#1f78b4;" value="69.4"/>
   </g>
   <g id="patch_4">
    <path atitle="Environmental" class="section" d="M 158.246564 23.291802  C 135.389696 33.974329 116.043342 50.952231 102.483205 72.228403  C 88.923068 93.504576 81.702538 118.210739 81.670961 143.440718  C 81.639385 168.670697 88.798051 193.394856 102.304889 214.704904  C 115.811728 236.014952 135.115524 253.041226 157.945581 263.780933  L 214.477789 143.606932  L 158.246564 23.291802  z " onmousemove="ShowTooltip(evt)" onmouseout="HideTooltip(evt)" style="fill:#b2df8a;" value="2714.3"/>
   </g>
   <g id="patch_5">
    <path atitle="Heritage" class="section" d="M 157.945581 263.780933  C 157.968977 263.791939 157.992376 263.802938 158.015778 263.81393  C 158.039181 263.824922 158.062586 263.835907 158.085995 263.846886  L 214.477789 143.606932  L 157.945581 263.780933  z " onmousemove="ShowTooltip(evt)" onmouseout="HideTooltip(evt)" style="fill:#33a02c;" value="1.4"/>
   </g>
   <g id="patch_6">
    <path atitle="Regional" class="section" d="M 158.085995 263.846886  C 171.195354 269.995094 185.222392 273.958221 199.610877 275.57911  C 213.999362 277.2 228.556559 276.456941 242.705217 273.379399  L 214.477789 143.606932  L 158.085995 263.846886  z " onmousemove="ShowTooltip(evt)" onmouseout="HideTooltip(evt)" style="fill:#fb9a99;" value="782.3"/>
   </g>
   <g id="patch_7">
    <path atitle="Rescue &amp; Restructure" class="section" d="M 242.705217 273.379399  C 249.231946 271.959739 255.642284 270.049721 261.881645 267.665609  C 268.121006 265.281497 274.171628 262.430078 279.981986 259.135635  L 214.477789 143.606932  L 242.705217 273.379399  z " onmousemove="ShowTooltip(evt)" onmouseout="HideTooltip(evt)" style="fill:#e31a1c;" value="361.5"/>
   </g>
   <g id="patch_8">
    <path atitle="R&amp;D" class="section" d="M 279.981986 259.135635  C 305.836784 244.476093 326.036876 221.553219 337.32802 194.059897  C 348.619164 166.566574 350.360615 136.06298 342.271825 107.463256  L 214.477789 143.606932  L 279.981986 259.135635  z " onmousemove="ShowTooltip(evt)" onmouseout="HideTooltip(evt)" style="fill:#fdbf6f;" value="1594.8"/>
   </g>
   <g id="patch_9">
    <path atitle="Sectoral" class="section" d="M 342.271825 107.463256  C 342.230611 107.317535 342.189148 107.171884 342.147436 107.026304  C 342.105723 106.880725 342.063762 106.735217 342.021552 106.58978  L 214.477789 143.606932  L 342.271825 107.463256  z " onmousemove="ShowTooltip(evt)" onmouseout="HideTooltip(evt)" style="fill:#ff7f00;" value="8.2"/>
   </g>
   <g id="patch_10">
    <path atitle="SME" class="section" d="M 342.021552 106.58978  C 335.04774 82.561291 321.423621 60.985672 302.726126 44.360208  C 284.028631 27.734745 261.008095 16.726618 236.329044 12.609971  L 214.477789 143.606932  L 342.021552 106.58978  z " onmousemove="ShowTooltip(evt)" onmouseout="HideTooltip(evt)" style="fill:#cab2d6;" value="1346.0"/>
   </g>
   <g id="patch_11">
    <path atitle="Training" class="section" d="M 236.329044 12.609971  C 233.92434 12.208849 231.509046 11.874017 229.08591 11.605856  C 226.662773 11.337696 224.232712 11.136308 221.79849 11.001923  L 214.477789 143.606932  L 236.329044 12.609971  z " onmousemove="ShowTooltip(evt)" onmouseout="HideTooltip(evt)" style="fill:#6a3d9a;" value="132.0"/>
   </g>
   <g id="patch_12">
    <path atitle="Other" class="section" d="M 221.79849 11.001923  C 220.579592 10.934631 219.359824 10.884149 218.139534 10.85049  C 216.919245 10.816832 215.698549 10.8 214.477795 10.8  L 214.477789 143.606932  L 221.79849 11.001923  z " onmousemove="ShowTooltip(evt)" onmouseout="HideTooltip(evt)" style="fill:#ffff99;" value="66.1"/>
   </g>
   <g id="matplotlib.axis_1"/>
   <g id="matplotlib.axis_2"/>
   <g id="legend_1" transform="translate(-140,170) scale(0.5)">
    <g id="patch_13">
     <path d="M 241.033125 214.15125  L 415.2 214.15125  L 415.2 16.8  L 241.033125 16.8  z " style="fill:#ffffff;stroke:#000000;stroke-linejoin:miter;"/>
    </g>
    <g id="patch_14">
     <path d="M 245.833125 30.718125  L 269.833125 30.718125  L 269.833125 22.318125  L 245.833125 22.318125  z " style="fill:#a6cee3;"/>
    </g>
    <g id="text_1">
     <!-- Culture -->
     <defs>
      <path d="M 9.421875 75.984375  L 18.40625 75.984375  L 18.40625 0  L 9.421875 0  z " id="BitstreamVeraSans-Roman-6c"/>
      <path d="M 8.5 21.578125  L 8.5 54.6875  L 17.484375 54.6875  L 17.484375 21.921875  Q 17.484375 14.15625 20.5 10.265625  Q 23.53125 6.390625 29.59375 6.390625  Q 36.859375 6.390625 41.078125 11.03125  Q 45.3125 15.671875 45.3125 23.6875  L 45.3125 54.6875  L 54.296875 54.6875  L 54.296875 0  L 45.3125 0  L 45.3125 8.40625  Q 42.046875 3.421875 37.71875 1  Q 33.40625 -1.421875 27.6875 -1.421875  Q 18.265625 -1.421875 13.375 4.4375  Q 8.5 10.296875 8.5 21.578125  " id="BitstreamVeraSans-Roman-75"/>
      <path d="M 64.40625 67.28125  L 64.40625 56.890625  Q 59.421875 61.53125 53.78125 63.8125  Q 48.140625 66.109375 41.796875 66.109375  Q 29.296875 66.109375 22.65625 58.46875  Q 16.015625 50.828125 16.015625 36.375  Q 16.015625 21.96875 22.65625 14.328125  Q 29.296875 6.6875 41.796875 6.6875  Q 48.140625 6.6875 53.78125 8.984375  Q 59.421875 11.28125 64.40625 15.921875  L 64.40625 5.609375  Q 59.234375 2.09375 53.4375 0.328125  Q 47.65625 -1.421875 41.21875 -1.421875  Q 24.65625 -1.421875 15.125 8.703125  Q 5.609375 18.84375 5.609375 36.375  Q 5.609375 53.953125 15.125 64.078125  Q 24.65625 74.21875 41.21875 74.21875  Q 47.75 74.21875 53.53125 72.484375  Q 59.328125 70.75 64.40625 67.28125  " id="BitstreamVeraSans-Roman-43"/>
      <path d="M 18.3125 70.21875  L 18.3125 54.6875  L 36.8125 54.6875  L 36.8125 47.703125  L 18.3125 47.703125  L 18.3125 18.015625  Q 18.3125 11.328125 20.140625 9.421875  Q 21.96875 7.515625 27.59375 7.515625  L 36.8125 7.515625  L 36.8125 0  L 27.59375 0  Q 17.1875 0 13.234375 3.875  Q 9.28125 7.765625 9.28125 18.015625  L 9.28125 47.703125  L 2.6875 47.703125  L 2.6875 54.6875  L 9.28125 54.6875  L 9.28125 70.21875  z " id="BitstreamVeraSans-Roman-74"/>
      <path d="M 41.109375 46.296875  Q 39.59375 47.171875 37.8125 47.578125  Q 36.03125 48 33.890625 48  Q 26.265625 48 22.1875 43.046875  Q 18.109375 38.09375 18.109375 28.8125  L 18.109375 0  L 9.078125 0  L 9.078125 54.6875  L 18.109375 54.6875  L 18.109375 46.1875  Q 20.953125 51.171875 25.484375 53.578125  Q 30.03125 56 36.53125 56  Q 37.453125 56 38.578125 55.875  Q 39.703125 55.765625 41.0625 55.515625  z " id="BitstreamVeraSans-Roman-72"/>
      <path d="M 56.203125 29.59375  L 56.203125 25.203125  L 14.890625 25.203125  Q 15.484375 15.921875 20.484375 11.0625  Q 25.484375 6.203125 34.421875 6.203125  Q 39.59375 6.203125 44.453125 7.46875  Q 49.3125 8.734375 54.109375 11.28125  L 54.109375 2.78125  Q 49.265625 0.734375 44.1875 -0.34375  Q 39.109375 -1.421875 33.890625 -1.421875  Q 20.796875 -1.421875 13.15625 6.1875  Q 5.515625 13.8125 5.515625 26.8125  Q 5.515625 40.234375 12.765625 48.109375  Q 20.015625 56 32.328125 56  Q 43.359375 56 49.78125 48.890625  Q 56.203125 41.796875 56.203125 29.59375  M 47.21875 32.234375  Q 47.125 39.59375 43.09375 43.984375  Q 39.0625 48.390625 32.421875 48.390625  Q 24.90625 48.390625 20.390625 44.140625  Q 15.875 39.890625 15.1875 32.171875  z " id="BitstreamVeraSans-Roman-65"/>
     </defs>
     <g transform="translate(279.433125 30.718125)scale(0.12 -0.12)">
      <use xlink:href="#BitstreamVeraSans-Roman-43"/>
      <use x="69.82421875" xlink:href="#BitstreamVeraSans-Roman-75"/>
      <use x="133.203125" xlink:href="#BitstreamVeraSans-Roman-6c"/>
      <use x="160.986328125" xlink:href="#BitstreamVeraSans-Roman-74"/>
      <use x="200.1953125" xlink:href="#BitstreamVeraSans-Roman-75"/>
      <use x="263.57421875" xlink:href="#BitstreamVeraSans-Roman-72"/>
      <use x="304.65625" xlink:href="#BitstreamVeraSans-Roman-65"/>
     </g>
    </g>
    <g id="patch_15">
     <path d="M 245.833125 48.331875  L 269.833125 48.331875  L 269.833125 39.931875  L 245.833125 39.931875  z " style="fill:#1f78b4;"/>
    </g>
    <g id="text_2">
     <!-- Employment -->
     <defs>
      <path d="M 18.109375 8.203125  L 18.109375 -20.796875  L 9.078125 -20.796875  L 9.078125 54.6875  L 18.109375 54.6875  L 18.109375 46.390625  Q 20.953125 51.265625 25.265625 53.625  Q 29.59375 56 35.59375 56  Q 45.5625 56 51.78125 48.09375  Q 58.015625 40.1875 58.015625 27.296875  Q 58.015625 14.40625 51.78125 6.484375  Q 45.5625 -1.421875 35.59375 -1.421875  Q 29.59375 -1.421875 25.265625 0.953125  Q 20.953125 3.328125 18.109375 8.203125  M 48.6875 27.296875  Q 48.6875 37.203125 44.609375 42.84375  Q 40.53125 48.484375 33.40625 48.484375  Q 26.265625 48.484375 22.1875 42.84375  Q 18.109375 37.203125 18.109375 27.296875  Q 18.109375 17.390625 22.1875 11.75  Q 26.265625 6.109375 33.40625 6.109375  Q 40.53125 6.109375 44.609375 11.75  Q 48.6875 17.390625 48.6875 27.296875  " id="BitstreamVeraSans-Roman-70"/>
      <path d="M 30.609375 48.390625  Q 23.390625 48.390625 19.1875 42.75  Q 14.984375 37.109375 14.984375 27.296875  Q 14.984375 17.484375 19.15625 11.84375  Q 23.34375 6.203125 30.609375 6.203125  Q 37.796875 6.203125 41.984375 11.859375  Q 46.1875 17.53125 46.1875 27.296875  Q 46.1875 37.015625 41.984375 42.703125  Q 37.796875 48.390625 30.609375 48.390625  M 30.609375 56  Q 42.328125 56 49.015625 48.375  Q 55.71875 40.765625 55.71875 27.296875  Q 55.71875 13.875 49.015625 6.21875  Q 42.328125 -1.421875 30.609375 -1.421875  Q 18.84375 -1.421875 12.171875 6.21875  Q 5.515625 13.875 5.515625 27.296875  Q 5.515625 40.765625 12.171875 48.375  Q 18.84375 56 30.609375 56  " id="BitstreamVeraSans-Roman-6f"/>
      <path d="M 52 44.1875  Q 55.375 50.25 60.0625 53.125  Q 64.75 56 71.09375 56  Q 79.640625 56 84.28125 50.015625  Q 88.921875 44.046875 88.921875 33.015625  L 88.921875 0  L 79.890625 0  L 79.890625 32.71875  Q 79.890625 40.578125 77.09375 44.375  Q 74.3125 48.1875 68.609375 48.1875  Q 61.625 48.1875 57.5625 43.546875  Q 53.515625 38.921875 53.515625 30.90625  L 53.515625 0  L 44.484375 0  L 44.484375 32.71875  Q 44.484375 40.625 41.703125 44.40625  Q 38.921875 48.1875 33.109375 48.1875  Q 26.21875 48.1875 22.15625 43.53125  Q 18.109375 38.875 18.109375 30.90625  L 18.109375 0  L 9.078125 0  L 9.078125 54.6875  L 18.109375 54.6875  L 18.109375 46.1875  Q 21.1875 51.21875 25.484375 53.609375  Q 29.78125 56 35.6875 56  Q 41.65625 56 45.828125 52.96875  Q 50 49.953125 52 44.1875  " id="BitstreamVeraSans-Roman-6d"/>
      <path d="M 9.8125 72.90625  L 55.90625 72.90625  L 55.90625 64.59375  L 19.671875 64.59375  L 19.671875 43.015625  L 54.390625 43.015625  L 54.390625 34.71875  L 19.671875 34.71875  L 19.671875 8.296875  L 56.78125 8.296875  L 56.78125 0  L 9.8125 0  z " id="BitstreamVeraSans-Roman-45"/>
      <path d="M 32.171875 -5.078125  Q 28.375 -14.84375 24.75 -17.8125  Q 21.140625 -20.796875 15.09375 -20.796875  L 7.90625 -20.796875  L 7.90625 -13.28125  L 13.1875 -13.28125  Q 16.890625 -13.28125 18.9375 -11.515625  Q 21 -9.765625 23.484375 -3.21875  L 25.09375 0.875  L 2.984375 54.6875  L 12.5 54.6875  L 29.59375 11.921875  L 46.6875 54.6875  L 56.203125 54.6875  z " id="BitstreamVeraSans-Roman-79"/>
      <path d="M 54.890625 33.015625  L 54.890625 0  L 45.90625 0  L 45.90625 32.71875  Q 45.90625 40.484375 42.875 44.328125  Q 39.84375 48.1875 33.796875 48.1875  Q 26.515625 48.1875 22.3125 43.546875  Q 18.109375 38.921875 18.109375 30.90625  L 18.109375 0  L 9.078125 0  L 9.078125 54.6875  L 18.109375 54.6875  L 18.109375 46.1875  Q 21.34375 51.125 25.703125 53.5625  Q 30.078125 56 35.796875 56  Q 45.21875 56 50.046875 50.171875  Q 54.890625 44.34375 54.890625 33.015625  " id="BitstreamVeraSans-Roman-6e"/>
     </defs>
     <g transform="translate(279.433125 48.331875)scale(0.12 -0.12)">
      <use xlink:href="#BitstreamVeraSans-Roman-45"/>
      <use x="63.18359375" xlink:href="#BitstreamVeraSans-Roman-6d"/>
      <use x="160.595703125" xlink:href="#BitstreamVeraSans-Roman-70"/>
      <use x="224.072265625" xlink:href="#BitstreamVeraSans-Roman-6c"/>
      <use x="251.85546875" xlink:href="#BitstreamVeraSans-Roman-6f"/>
      <use x="313.037109375" xlink:href="#BitstreamVeraSans-Roman-79"/>
      <use x="372.216796875" xlink:href="#BitstreamVeraSans-Roman-6d"/>
      <use x="469.62890625" xlink:href="#BitstreamVeraSans-Roman-65"/>
      <use x="531.15234375" xlink:href="#BitstreamVeraSans-Roman-6e"/>
      <use x="594.53125" xlink:href="#BitstreamVeraSans-Roman-74"/>
     </g>
    </g>
    <g id="patch_16">
     <path d="M 245.833125 65.945625  L 269.833125 65.945625  L 269.833125 57.545625  L 245.833125 57.545625  z " style="fill:#b2df8a;"/>
    </g>
    <g id="text_3">
     <!-- Environmental -->
     <defs>
      <path d="M 9.421875 54.6875  L 18.40625 54.6875  L 18.40625 0  L 9.421875 0  z M 9.421875 75.984375  L 18.40625 75.984375  L 18.40625 64.59375  L 9.421875 64.59375  z " id="BitstreamVeraSans-Roman-69"/>
      <path d="M 2.984375 54.6875  L 12.5 54.6875  L 29.59375 8.796875  L 46.6875 54.6875  L 56.203125 54.6875  L 35.6875 0  L 23.484375 0  z " id="BitstreamVeraSans-Roman-76"/>
      <path d="M 34.28125 27.484375  Q 23.390625 27.484375 19.1875 25  Q 14.984375 22.515625 14.984375 16.5  Q 14.984375 11.71875 18.140625 8.90625  Q 21.296875 6.109375 26.703125 6.109375  Q 34.1875 6.109375 38.703125 11.40625  Q 43.21875 16.703125 43.21875 25.484375  L 43.21875 27.484375  z M 52.203125 31.203125  L 52.203125 0  L 43.21875 0  L 43.21875 8.296875  Q 40.140625 3.328125 35.546875 0.953125  Q 30.953125 -1.421875 24.3125 -1.421875  Q 15.921875 -1.421875 10.953125 3.296875  Q 6 8.015625 6 15.921875  Q 6 25.140625 12.171875 29.828125  Q 18.359375 34.515625 30.609375 34.515625  L 43.21875 34.515625  L 43.21875 35.40625  Q 43.21875 41.609375 39.140625 45  Q 35.0625 48.390625 27.6875 48.390625  Q 23 48.390625 18.546875 47.265625  Q 14.109375 46.140625 10.015625 43.890625  L 10.015625 52.203125  Q 14.9375 54.109375 19.578125 55.046875  Q 24.21875 56 28.609375 56  Q 40.484375 56 46.34375 49.84375  Q 52.203125 43.703125 52.203125 31.203125  " id="BitstreamVeraSans-Roman-61"/>
     </defs>
     <g transform="translate(279.433125 65.945625)scale(0.12 -0.12)">
      <use xlink:href="#BitstreamVeraSans-Roman-45"/>
      <use x="63.18359375" xlink:href="#BitstreamVeraSans-Roman-6e"/>
      <use x="126.5625" xlink:href="#BitstreamVeraSans-Roman-76"/>
      <use x="185.7421875" xlink:href="#BitstreamVeraSans-Roman-69"/>
      <use x="213.525390625" xlink:href="#BitstreamVeraSans-Roman-72"/>
      <use x="254.607421875" xlink:href="#BitstreamVeraSans-Roman-6f"/>
      <use x="315.7890625" xlink:href="#BitstreamVeraSans-Roman-6e"/>
      <use x="379.16796875" xlink:href="#BitstreamVeraSans-Roman-6d"/>
      <use x="476.580078125" xlink:href="#BitstreamVeraSans-Roman-65"/>
      <use x="538.103515625" xlink:href="#BitstreamVeraSans-Roman-6e"/>
      <use x="601.482421875" xlink:href="#BitstreamVeraSans-Roman-74"/>
      <use x="640.69140625" xlink:href="#BitstreamVeraSans-Roman-61"/>
      <use x="701.970703125" xlink:href="#BitstreamVeraSans-Roman-6c"/>
     </g>
    </g>
    <g id="patch_17">
     <path d="M 245.833125 83.559375  L 269.833125 83.559375  L 269.833125 75.159375  L 245.833125 75.159375  z " style="fill:#33a02c;"/>
    </g>
    <g id="text_4">
     <!-- Heritage -->
     <defs>
      <path d="M 45.40625 27.984375  Q 45.40625 37.75 41.375 43.109375  Q 37.359375 48.484375 30.078125 48.484375  Q 22.859375 48.484375 18.828125 43.109375  Q 14.796875 37.75 14.796875 27.984375  Q 14.796875 18.265625 18.828125 12.890625  Q 22.859375 7.515625 30.078125 7.515625  Q 37.359375 7.515625 41.375 12.890625  Q 45.40625 18.265625 45.40625 27.984375  M 54.390625 6.78125  Q 54.390625 -7.171875 48.1875 -13.984375  Q 42 -20.796875 29.203125 -20.796875  Q 24.46875 -20.796875 20.265625 -20.09375  Q 16.0625 -19.390625 12.109375 -17.921875  L 12.109375 -9.1875  Q 16.0625 -11.328125 19.921875 -12.34375  Q 23.78125 -13.375 27.78125 -13.375  Q 36.625 -13.375 41.015625 -8.765625  Q 45.40625 -4.15625 45.40625 5.171875  L 45.40625 9.625  Q 42.625 4.78125 38.28125 2.390625  Q 33.9375 0 27.875 0  Q 17.828125 0 11.671875 7.65625  Q 5.515625 15.328125 5.515625 27.984375  Q 5.515625 40.671875 11.671875 48.328125  Q 17.828125 56 27.875 56  Q 33.9375 56 38.28125 53.609375  Q 42.625 51.21875 45.40625 46.390625  L 45.40625 54.6875  L 54.390625 54.6875  z " id="BitstreamVeraSans-Roman-67"/>
      <path d="M 9.8125 72.90625  L 19.671875 72.90625  L 19.671875 43.015625  L 55.515625 43.015625  L 55.515625 72.90625  L 65.375 72.90625  L 65.375 0  L 55.515625 0  L 55.515625 34.71875  L 19.671875 34.71875  L 19.671875 0  L 9.8125 0  z " id="BitstreamVeraSans-Roman-48"/>
     </defs>
     <g transform="translate(279.433125 83.559375)scale(0.12 -0.12)">
      <use xlink:href="#BitstreamVeraSans-Roman-48"/>
      <use x="75.1953125" xlink:href="#BitstreamVeraSans-Roman-65"/>
      <use x="136.71875" xlink:href="#BitstreamVeraSans-Roman-72"/>
      <use x="177.83203125" xlink:href="#BitstreamVeraSans-Roman-69"/>
      <use x="205.615234375" xlink:href="#BitstreamVeraSans-Roman-74"/>
      <use x="244.82421875" xlink:href="#BitstreamVeraSans-Roman-61"/>
      <use x="306.103515625" xlink:href="#BitstreamVeraSans-Roman-67"/>
      <use x="369.580078125" xlink:href="#BitstreamVeraSans-Roman-65"/>
     </g>
    </g>
    <g id="patch_18">
     <path d="M 245.833125 101.173125  L 269.833125 101.173125  L 269.833125 92.773125  L 245.833125 92.773125  z " style="fill:#fb9a99;"/>
    </g>
    <g id="text_5">
     <!-- Regional -->
     <defs>
      <path d="M 44.390625 34.1875  Q 47.5625 33.109375 50.5625 29.59375  Q 53.5625 26.078125 56.59375 19.921875  L 66.609375 0  L 56 0  L 46.6875 18.703125  Q 43.0625 26.03125 39.671875 28.421875  Q 36.28125 30.8125 30.421875 30.8125  L 19.671875 30.8125  L 19.671875 0  L 9.8125 0  L 9.8125 72.90625  L 32.078125 72.90625  Q 44.578125 72.90625 50.734375 67.671875  Q 56.890625 62.453125 56.890625 51.90625  Q 56.890625 45.015625 53.6875 40.46875  Q 50.484375 35.9375 44.390625 34.1875  M 19.671875 64.796875  L 19.671875 38.921875  L 32.078125 38.921875  Q 39.203125 38.921875 42.84375 42.21875  Q 46.484375 45.515625 46.484375 51.90625  Q 46.484375 58.296875 42.84375 61.546875  Q 39.203125 64.796875 32.078125 64.796875  z " id="BitstreamVeraSans-Roman-52"/>
     </defs>
     <g transform="translate(279.433125 101.173125)scale(0.12 -0.12)">
      <use xlink:href="#BitstreamVeraSans-Roman-52"/>
      <use x="69.419921875" xlink:href="#BitstreamVeraSans-Roman-65"/>
      <use x="130.943359375" xlink:href="#BitstreamVeraSans-Roman-67"/>
      <use x="194.419921875" xlink:href="#BitstreamVeraSans-Roman-69"/>
      <use x="222.203125" xlink:href="#BitstreamVeraSans-Roman-6f"/>
      <use x="283.384765625" xlink:href="#BitstreamVeraSans-Roman-6e"/>
      <use x="346.763671875" xlink:href="#BitstreamVeraSans-Roman-61"/>
      <use x="408.04296875" xlink:href="#BitstreamVeraSans-Roman-6c"/>
     </g>
    </g>
    <g id="patch_19">
     <path d="M 245.833125 118.786875  L 269.833125 118.786875  L 269.833125 110.386875  L 245.833125 110.386875  z " style="fill:#e31a1c;"/>
    </g>
    <g id="text_6">
     <!-- Rescue &amp; Restructure -->
     <defs>
      <path d="M 24.3125 39.203125  Q 19.875 35.25 17.796875 31.3125  Q 15.71875 27.390625 15.71875 23.09375  Q 15.71875 15.96875 20.890625 11.234375  Q 26.078125 6.5 33.890625 6.5  Q 38.53125 6.5 42.578125 8.03125  Q 46.625 9.578125 50.203125 12.703125  z M 31.203125 44.671875  L 56 19.28125  Q 58.890625 23.640625 60.5 28.59375  Q 62.109375 33.546875 62.40625 39.109375  L 71.484375 39.109375  Q 70.90625 32.671875 68.359375 26.359375  Q 65.828125 20.0625 61.28125 13.921875  L 74.90625 0  L 62.59375 0  L 55.609375 7.171875  Q 50.53125 2.828125 44.96875 0.703125  Q 39.40625 -1.421875 33.015625 -1.421875  Q 21.234375 -1.421875 13.765625 5.296875  Q 6.296875 12.015625 6.296875 22.515625  Q 6.296875 28.765625 9.5625 34.25  Q 12.84375 39.75 19.390625 44.578125  Q 17.046875 47.65625 15.8125 50.703125  Q 14.59375 53.765625 14.59375 56.6875  Q 14.59375 64.59375 20.015625 69.40625  Q 25.4375 74.21875 34.421875 74.21875  Q 38.484375 74.21875 42.5 73.34375  Q 46.53125 72.46875 50.6875 70.703125  L 50.6875 61.8125  Q 46.4375 64.109375 42.578125 65.296875  Q 38.71875 66.5 35.40625 66.5  Q 30.28125 66.5 27.078125 63.78125  Q 23.875 61.078125 23.875 56.78125  Q 23.875 54.296875 25.3125 51.78125  Q 26.765625 49.265625 31.203125 44.671875  " id="BitstreamVeraSans-Roman-26"/>
      <path id="BitstreamVeraSans-Roman-20"/>
      <path d="M 48.78125 52.59375  L 48.78125 44.1875  Q 44.96875 46.296875 41.140625 47.34375  Q 37.3125 48.390625 33.40625 48.390625  Q 24.65625 48.390625 19.8125 42.84375  Q 14.984375 37.3125 14.984375 27.296875  Q 14.984375 17.28125 19.8125 11.734375  Q 24.65625 6.203125 33.40625 6.203125  Q 37.3125 6.203125 41.140625 7.25  Q 44.96875 8.296875 48.78125 10.40625  L 48.78125 2.09375  Q 45.015625 0.34375 40.984375 -0.53125  Q 36.96875 -1.421875 32.421875 -1.421875  Q 20.0625 -1.421875 12.78125 6.34375  Q 5.515625 14.109375 5.515625 27.296875  Q 5.515625 40.671875 12.859375 48.328125  Q 20.21875 56 33.015625 56  Q 37.15625 56 41.109375 55.140625  Q 45.0625 54.296875 48.78125 52.59375  " id="BitstreamVeraSans-Roman-63"/>
      <path d="M 44.28125 53.078125  L 44.28125 44.578125  Q 40.484375 46.53125 36.375 47.5  Q 32.28125 48.484375 27.875 48.484375  Q 21.1875 48.484375 17.84375 46.4375  Q 14.5 44.390625 14.5 40.28125  Q 14.5 37.15625 16.890625 35.375  Q 19.28125 33.59375 26.515625 31.984375  L 29.59375 31.296875  Q 39.15625 29.25 43.1875 25.515625  Q 47.21875 21.78125 47.21875 15.09375  Q 47.21875 7.46875 41.1875 3.015625  Q 35.15625 -1.421875 24.609375 -1.421875  Q 20.21875 -1.421875 15.453125 -0.5625  Q 10.6875 0.296875 5.421875 2  L 5.421875 11.28125  Q 10.40625 8.6875 15.234375 7.390625  Q 20.0625 6.109375 24.8125 6.109375  Q 31.15625 6.109375 34.5625 8.28125  Q 37.984375 10.453125 37.984375 14.40625  Q 37.984375 18.0625 35.515625 20.015625  Q 33.0625 21.96875 24.703125 23.78125  L 21.578125 24.515625  Q 13.234375 26.265625 9.515625 29.90625  Q 5.8125 33.546875 5.8125 39.890625  Q 5.8125 47.609375 11.28125 51.796875  Q 16.75 56 26.8125 56  Q 31.78125 56 36.171875 55.265625  Q 40.578125 54.546875 44.28125 53.078125  " id="BitstreamVeraSans-Roman-73"/>
     </defs>
     <g transform="translate(279.433125 118.786875)scale(0.12 -0.12)">
      <use xlink:href="#BitstreamVeraSans-Roman-52"/>
      <use x="69.419921875" xlink:href="#BitstreamVeraSans-Roman-65"/>
      <use x="130.943359375" xlink:href="#BitstreamVeraSans-Roman-73"/>
      <use x="183.04296875" xlink:href="#BitstreamVeraSans-Roman-63"/>
      <use x="238.0234375" xlink:href="#BitstreamVeraSans-Roman-75"/>
      <use x="301.40234375" xlink:href="#BitstreamVeraSans-Roman-65"/>
      <use x="362.92578125" xlink:href="#BitstreamVeraSans-Roman-20"/>
      <use x="394.712890625" xlink:href="#BitstreamVeraSans-Roman-26"/>
      <use x="472.69140625" xlink:href="#BitstreamVeraSans-Roman-20"/>
      <use x="504.478515625" xlink:href="#BitstreamVeraSans-Roman-52"/>
      <use x="573.8984375" xlink:href="#BitstreamVeraSans-Roman-65"/>
      <use x="635.421875" xlink:href="#BitstreamVeraSans-Roman-73"/>
      <use x="687.521484375" xlink:href="#BitstreamVeraSans-Roman-74"/>
      <use x="726.73046875" xlink:href="#BitstreamVeraSans-Roman-72"/>
      <use x="767.84375" xlink:href="#BitstreamVeraSans-Roman-75"/>
      <use x="831.22265625" xlink:href="#BitstreamVeraSans-Roman-63"/>
      <use x="886.203125" xlink:href="#BitstreamVeraSans-Roman-74"/>
      <use x="925.412109375" xlink:href="#BitstreamVeraSans-Roman-75"/>
      <use x="988.791015625" xlink:href="#BitstreamVeraSans-Roman-72"/>
      <use x="1029.873046875" xlink:href="#BitstreamVeraSans-Roman-65"/>
     </g>
    </g>
    <g id="patch_20">
     <path d="M 245.833125 136.400625  L 269.833125 136.400625  L 269.833125 128.000625  L 245.833125 128.000625  z " style="fill:#fdbf6f;"/>
    </g>
    <g id="text_7">
     <!-- R&amp;D -->
     <defs>
      <path d="M 19.671875 64.796875  L 19.671875 8.109375  L 31.59375 8.109375  Q 46.6875 8.109375 53.6875 14.9375  Q 60.6875 21.78125 60.6875 36.53125  Q 60.6875 51.171875 53.6875 57.984375  Q 46.6875 64.796875 31.59375 64.796875  z M 9.8125 72.90625  L 30.078125 72.90625  Q 51.265625 72.90625 61.171875 64.09375  Q 71.09375 55.28125 71.09375 36.53125  Q 71.09375 17.671875 61.125 8.828125  Q 51.171875 0 30.078125 0  L 9.8125 0  z " id="BitstreamVeraSans-Roman-44"/>
     </defs>
     <g transform="translate(279.433125 136.400625)scale(0.12 -0.12)">
      <use xlink:href="#BitstreamVeraSans-Roman-52"/>
      <use x="69.482421875" xlink:href="#BitstreamVeraSans-Roman-26"/>
      <use x="147.4609375" xlink:href="#BitstreamVeraSans-Roman-44"/>
     </g>
    </g>
    <g id="patch_21">
     <path d="M 245.833125 154.014375  L 269.833125 154.014375  L 269.833125 145.614375  L 245.833125 145.614375  z " style="fill:#ff7f00;"/>
    </g>
    <g id="text_8">
     <!-- Sectoral -->
     <defs>
      <path d="M 53.515625 70.515625  L 53.515625 60.890625  Q 47.90625 63.578125 42.921875 64.890625  Q 37.9375 66.21875 33.296875 66.21875  Q 25.25 66.21875 20.875 63.09375  Q 16.5 59.96875 16.5 54.203125  Q 16.5 49.359375 19.40625 46.890625  Q 22.3125 44.4375 30.421875 42.921875  L 36.375 41.703125  Q 47.40625 39.59375 52.65625 34.296875  Q 57.90625 29 57.90625 20.125  Q 57.90625 9.515625 50.796875 4.046875  Q 43.703125 -1.421875 29.984375 -1.421875  Q 24.8125 -1.421875 18.96875 -0.25  Q 13.140625 0.921875 6.890625 3.21875  L 6.890625 13.375  Q 12.890625 10.015625 18.65625 8.296875  Q 24.421875 6.59375 29.984375 6.59375  Q 38.421875 6.59375 43.015625 9.90625  Q 47.609375 13.234375 47.609375 19.390625  Q 47.609375 24.75 44.3125 27.78125  Q 41.015625 30.8125 33.5 32.328125  L 27.484375 33.5  Q 16.453125 35.6875 11.515625 40.375  Q 6.59375 45.0625 6.59375 53.421875  Q 6.59375 63.09375 13.40625 68.65625  Q 20.21875 74.21875 32.171875 74.21875  Q 37.3125 74.21875 42.625 73.28125  Q 47.953125 72.359375 53.515625 70.515625  " id="BitstreamVeraSans-Roman-53"/>
     </defs>
     <g transform="translate(279.433125 154.014375)scale(0.12 -0.12)">
      <use xlink:href="#BitstreamVeraSans-Roman-53"/>
      <use x="63.4765625" xlink:href="#BitstreamVeraSans-Roman-65"/>
      <use x="125.0" xlink:href="#BitstreamVeraSans-Roman-63"/>
      <use x="179.98046875" xlink:href="#BitstreamVeraSans-Roman-74"/>
      <use x="219.189453125" xlink:href="#BitstreamVeraSans-Roman-6f"/>
      <use x="280.37109375" xlink:href="#BitstreamVeraSans-Roman-72"/>
      <use x="321.484375" xlink:href="#BitstreamVeraSans-Roman-61"/>
      <use x="382.763671875" xlink:href="#BitstreamVeraSans-Roman-6c"/>
     </g>
    </g>
    <g id="patch_22">
     <path d="M 245.833125 171.628125  L 269.833125 171.628125  L 269.833125 163.228125  L 245.833125 163.228125  z " style="fill:#cab2d6;"/>
    </g>
    <g id="text_9">
     <!-- SME -->
     <defs>
      <path d="M 9.8125 72.90625  L 24.515625 72.90625  L 43.109375 23.296875  L 61.8125 72.90625  L 76.515625 72.90625  L 76.515625 0  L 66.890625 0  L 66.890625 64.015625  L 48.09375 14.015625  L 38.1875 14.015625  L 19.390625 64.015625  L 19.390625 0  L 9.8125 0  z " id="BitstreamVeraSans-Roman-4d"/>
     </defs>
     <g transform="translate(279.433125 171.628125)scale(0.12 -0.12)">
      <use xlink:href="#BitstreamVeraSans-Roman-53"/>
      <use x="63.4765625" xlink:href="#BitstreamVeraSans-Roman-4d"/>
      <use x="149.755859375" xlink:href="#BitstreamVeraSans-Roman-45"/>
     </g>
    </g>
    <g id="patch_23">
     <path d="M 245.833125 189.241875  L 269.833125 189.241875  L 269.833125 180.841875  L 245.833125 180.841875  z " style="fill:#6a3d9a;"/>
    </g>
    <g id="text_10">
     <!-- Training -->
     <defs>
      <path d="M -0.296875 72.90625  L 61.375 72.90625  L 61.375 64.59375  L 35.5 64.59375  L 35.5 0  L 25.59375 0  L 25.59375 64.59375  L -0.296875 64.59375  z " id="BitstreamVeraSans-Roman-54"/>
     </defs>
     <g transform="translate(279.433125 189.241875)scale(0.12 -0.12)">
      <use xlink:href="#BitstreamVeraSans-Roman-54"/>
      <use x="60.865234375" xlink:href="#BitstreamVeraSans-Roman-72"/>
      <use x="101.978515625" xlink:href="#BitstreamVeraSans-Roman-61"/>
      <use x="163.2578125" xlink:href="#BitstreamVeraSans-Roman-69"/>
      <use x="191.041015625" xlink:href="#BitstreamVeraSans-Roman-6e"/>
      <use x="254.419921875" xlink:href="#BitstreamVeraSans-Roman-69"/>
      <use x="282.203125" xlink:href="#BitstreamVeraSans-Roman-6e"/>
      <use x="345.58203125" xlink:href="#BitstreamVeraSans-Roman-67"/>
     </g>
    </g>
    <g id="patch_24">
     <path d="M 245.833125 206.855625  L 269.833125 206.855625  L 269.833125 198.455625  L 245.833125 198.455625  z " style="fill:#ffff99;"/>
    </g>
    <g id="text_11">
     <!-- Other -->
     <defs>
      <path d="M 54.890625 33.015625  L 54.890625 0  L 45.90625 0  L 45.90625 32.71875  Q 45.90625 40.484375 42.875 44.328125  Q 39.84375 48.1875 33.796875 48.1875  Q 26.515625 48.1875 22.3125 43.546875  Q 18.109375 38.921875 18.109375 30.90625  L 18.109375 0  L 9.078125 0  L 9.078125 75.984375  L 18.109375 75.984375  L 18.109375 46.1875  Q 21.34375 51.125 25.703125 53.5625  Q 30.078125 56 35.796875 56  Q 45.21875 56 50.046875 50.171875  Q 54.890625 44.34375 54.890625 33.015625  " id="BitstreamVeraSans-Roman-68"/>
      <path d="M 39.40625 66.21875  Q 28.65625 66.21875 22.328125 58.203125  Q 16.015625 50.203125 16.015625 36.375  Q 16.015625 22.609375 22.328125 14.59375  Q 28.65625 6.59375 39.40625 6.59375  Q 50.140625 6.59375 56.421875 14.59375  Q 62.703125 22.609375 62.703125 36.375  Q 62.703125 50.203125 56.421875 58.203125  Q 50.140625 66.21875 39.40625 66.21875  M 39.40625 74.21875  Q 54.734375 74.21875 63.90625 63.9375  Q 73.09375 53.65625 73.09375 36.375  Q 73.09375 19.140625 63.90625 8.859375  Q 54.734375 -1.421875 39.40625 -1.421875  Q 24.03125 -1.421875 14.8125 8.828125  Q 5.609375 19.09375 5.609375 36.375  Q 5.609375 53.65625 14.8125 63.9375  Q 24.03125 74.21875 39.40625 74.21875  " id="BitstreamVeraSans-Roman-4f"/>
     </defs>
     <g transform="translate(279.433125 206.855625)scale(0.12 -0.12)">
      <use xlink:href="#BitstreamVeraSans-Roman-4f"/>
      <use x="78.7109375" xlink:href="#BitstreamVeraSans-Roman-74"/>
      <use x="117.919921875" xlink:href="#BitstreamVeraSans-Roman-68"/>
      <use x="181.298828125" xlink:href="#BitstreamVeraSans-Roman-65"/>
      <use x="242.822265625" xlink:href="#BitstreamVeraSans-Roman-72"/>
     </g>
    </g>
   </g>
  </g>
 </g>
 <g id="title" visibility="visible">
  <text class="title" x="30" y="45">
   2014 aid by objective (UK)
  </text>
  <text class="title" x="30" y="75">
   €m
  </text>
 </g>
 <rect class="tooltip_bg" height="20" id="tooltip_bg" rx="2" ry="2" visibility="hidden" width="100" x="0" y="0"/>
 <text class="tooltip" id="tooltip" visibility="hidden" x="0" y="0">
  Tooltip
 </text>
</svg>
